{"title":"Dawn of the Planet of the Apes [2014] - HDCamRip - {Hindi Audio}","uid":10661973,"size":517769109,"categoryP":"video","categoryS":"movies","magnet":"?xt=urn:btih:9732d82bb7390c13efcf4d75f9379cc0f425bf7a&amp;dn=Dawn+of+the+Planet+of+the+Apes+%5B2014%5D+-+HDCamRip+-+%7BHindi+Audio%7D&amp;tr=udp%3A%2F%2Ftracker.openbittorrent.com%3A80&amp;tr=udp%3A%2F%2Fopen.demonii.com%3A1337&amp;tr=udp%3A%2F%2Ftracker.coppersurfer.tk%3A6969&amp;tr=udp%3A%2F%2Fexodus.desync.com%3A6969","seeders":5,"leechers":0,"uploader":"inovai","files":15,"time":1406739824,"description":"\nPlot:\n\nIn the wake of a disaster that changed the world, the growing and genetically evolving apes find themselves at a critical point with the human race.\n\nScreenshots:\n &lt;a href=&quot;\nhttp://img.primetimeshow.in/share.php?id=5BFB_53D7E1CB&quot; rel=&quot;nofollow&quot; target=&quot;_NEW&quot;&gt;\nhttp://img.primetimeshow.in/share.php?id=5BFB_53D7E1CB&lt;/a&gt;\n &lt;a href=&quot;\nhttp://img.primetimeshow.in/share.php?id=269B_53D7E1CB&quot; rel=&quot;nofollow&quot; target=&quot;_NEW&quot;&gt;\nhttp://img.primetimeshow.in/share.php?id=269B_53D7E1CB&lt;/a&gt;\n &lt;a href=&quot;\nhttp://img.primetimeshow.in/share.php?id=C4C3_53D7E1CB&quot; rel=&quot;nofollow&quot; target=&quot;_NEW&quot;&gt;\nhttp://img.primetimeshow.in/share.php?id=C4C3_53D7E1CB&lt;/a&gt;\n &lt;a href=&quot;\nhttp://img.primetimeshow.in/share.php?id=172F_53D7E298&quot; rel=&quot;nofollow&quot; target=&quot;_NEW&quot;&gt;\nhttp://img.primetimeshow.in/share.php?id=172F_53D7E298&lt;/a&gt;\n &lt;a href=&quot;\nhttp://img.primetimeshow.in/share.php?id=31A7_53D7E298&quot; rel=&quot;nofollow&quot; target=&quot;_NEW&quot;&gt;\nhttp://img.primetimeshow.in/share.php?id=31A7_53D7E298&lt;/a&gt;\n\nGeneral Info:\n\nComplete name : Dawn of the Planet of the Apes [2014] - HDCamRip - { Hindi Audio } - x264 - 1CD - AC-3 - Cool_Candy.mkv\n\nFormat : Matroska\nFormat version : Version 4 / Version 2\nFile size : 491 MiB\nDuration : 2h 1mn\nOverall bit rate : 568 Kbps\nWriting application : Lavf55.19.104\nWriting library : Lavf55.19.104\n\n\n\nVideo\nID : 1\nFormat : AVC\nFormat/Info : Advanced Video Codec\nFormat profile : &lt;a class=&quot;__cf_email__&quot; href=&quot;/cdn-cgi/l/email-protection&quot; data-cfemail=&quot;95d7f4e6f0f9fcfbf0d5d9a4bba6&quot;&gt;[email&amp;#160;protected]&lt;/a&gt;&lt;script cf-hash='f9e31' type=&quot;text/javascript&quot;&gt;\n/* &lt;![CDATA[ */!function(){try{var t=&quot;currentScript&quot;in document?document.currentScript:function(){for(var t=document.getElementsByTagName(&quot;script&quot;),e=t.length;e--;)if(t[e].getAttribute(&quot;cf-hash&quot;))return t[e]}();if(t&amp;&amp;t.previousSibling){var e,r,n,i,c=t.previousSibling,a=c.getAttribute(&quot;data-cfemail&quot;);if(a){for(e=&quot;&quot;,r=parseInt(a.substr(0,2),16),n=2;a.length-n;n+=2)i=parseInt(a.substr(n,2),16)^r,e+=String.fromCharCode(i);e=document.createTextNode(e),c.parentNode.replaceChild(e,c)}}}catch(u){}}();/* ]]&gt; */&lt;/script&gt;\nFormat settings, CABAC : No\nFormat settings, ReFrames : 2 frames\nCodec ID : V_MPEG4/ISO/AVC\nDuration : 2h 1mn\nBit rate : 364 Kbps\nNominal bit rate : 384 Kbps\nWidth : 720 pixels\nHeight : 288 pixels\nDisplay aspect ratio : 2.500\nFrame rate mode : Constant\nFrame rate : 23.976 fps\nColor space : YUV\nChroma subsampling : 4:2:0\nBit depth : 8 bits\nScan type : Progressive\nBits/(Pixel*Frame) : 0.073\nStream size : 315 MiB (64%)\nTitle : {GreatPalash}\nWriting library : x264 core 140 r2377 1ca7bb9\nEncoding settings : Cool_Candy\nDefault : Yes\nForced : No\nDURATION : 02:01:02.604\n\n\nAudio\nID : 2\nFormat : AC-3\nFormat/Info : Audio Coding 3\nMode extension : CM (complete main)\nFormat settings, Endianness : Big\nCodec ID : A_AC3\nDuration : 2h 1mn\nBit rate mode : Constant\nBit rate : 192 Kbps\nChannel(s) : 2 channels\nChannel positions : Front: L R\nSampling rate : 48.0 KHz\nBit depth : 16 bits\nCompression mode : Lossy\nDelay relative to video : 62ms\nStream size : 166 MiB (34%)\nLanguage : Hindi\nDefault : Yes\nForced : No\nDURATION : 02:01:02.583000000\nNUMBER_OF_FRAMES : 74315\nNUMBER_OF_BYTES : 27609684\n_STATISTICS_WRITING_APP : mkvmerge v7.0.0\n\nTHANX : DESI INDIAN {GreatPalash}\n\nSeed Please After download!!","torrent":{"xt":"urn:btih:9732d82bb7390c13efcf4d75f9379cc0f425bf7a","amp;dn":"Dawn+of+the+Planet+of+the+Apes+%5B2014%5D+-+HDCamRip+-+%7BHindi+Audio%7D","amp;tr":["udp%3A%2F%2Ftracker.openbittorrent.com%3A80","udp%3A%2F%2Fopen.demonii.com%3A1337","udp%3A%2F%2Ftracker.coppersurfer.tk%3A6969","udp%3A%2F%2Fexodus.desync.com%3A6969"],"infoHash":"9732d82bb7390c13efcf4d75f9379cc0f425bf7a","infoHashBuffer":{"type":"Buffer","data":[151,50,216,43,183,57,12,19,239,207,77,117,249,55,156,192,244,37,191,122]},"announce":[],"urlList":[]}}